<svg width="997" height="1246" viewBox="0 0 997 1246" fill="none" xmlns="http://www.w3.org/2000/svg">
<rect width="997" height="1246" fill="white"/>
<path d="M557.802 729.7L511.602 726.2C525.602 715 538.902 701.467 551.502 685.6C564.568 669.733 576.702 652.933 587.902 635.2C599.568 617 610.535 598.8 620.802 580.6C631.535 562.4 641.335 545.6 650.202 530.2C659.535 514.333 668.402 501.267 676.802 491C686.602 479.333 695.935 470.467 704.802 464.4C713.668 457.867 725.102 454.6 739.102 454.6C753.568 454.6 764.535 458.333 772.002 465.8C779.468 473.267 783.202 481.9 783.202 491.7C783.202 496.367 782.268 501.5 780.402 507.1C779.002 512.233 776.668 516.667 773.402 520.4C772.002 519 770.368 518.3 768.502 518.3C767.102 517.833 765.702 517.6 764.302 517.6C754.035 516.667 743.068 521.1 731.402 530.9C720.202 540.233 708.768 552.833 697.102 568.7C685.435 584.1 673.302 600.667 660.702 618.4C648.568 635.667 636.668 652.467 625.002 668.8C613.335 685.133 601.668 698.9 590.002 710.1C578.802 721.3 568.068 727.833 557.802 729.7ZM689.402 1034.9C673.068 1034.9 659.535 1030.47 648.802 1021.6C638.535 1013.2 629.202 1001.3 620.802 985.9C614.735 975.167 608.202 961.4 601.202 944.6C594.202 927.333 586.968 908.9 579.502 889.3C572.502 869.233 565.035 849.167 557.102 829.1C549.635 808.567 541.935 789.433 534.002 771.7C526.535 753.5 519.068 738.333 511.602 726.2L568.302 717.1C576.235 722.7 584.168 732.967 592.102 747.9C600.502 762.833 608.902 780.333 617.302 800.4C625.702 820.467 634.568 841.233 643.902 862.7C653.235 883.7 663.035 903.767 673.302 922.9C684.035 942.033 695.235 957.9 706.902 970.5C719.035 983.567 731.868 991.733 745.402 995C741.668 1006.2 734.902 1015.53 725.102 1023C715.768 1030.93 703.868 1034.9 689.402 1034.9ZM389.802 968.4C380.935 968.4 372.535 966.767 364.602 963.5C357.135 960.233 352.235 955.8 349.902 950.2C355.502 946.467 360.402 941.8 364.602 936.2C368.802 930.6 372.302 923.6 375.102 915.2C378.368 906.333 381.168 895.6 383.502 883L438.102 591.8C442.302 569.867 448.602 551.667 457.002 537.2C465.402 522.733 476.368 511.767 489.902 504.3C503.902 496.367 520.935 491.933 541.002 491L461.202 898.4C457.935 914.733 453.268 928.267 447.202 939C441.602 949.267 434.135 956.733 424.802 961.4C415.468 966.067 403.802 968.4 389.802 968.4ZM326.102 680C312.102 680 299.968 676.733 289.702 670.2C279.902 663.2 272.202 653.633 266.602 641.5C261.002 629.367 258.202 615.133 258.202 598.8C258.202 576.4 263.568 554.7 274.302 533.7C285.502 512.233 302.302 494.733 324.702 481.2C347.102 467.667 375.568 460.9 410.102 460.9C424.568 460.9 437.635 462.3 449.302 465.1C461.435 467.433 472.635 470.7 482.902 474.9C493.635 478.633 503.668 482.133 513.002 485.4C522.335 488.2 531.435 490.067 540.302 491L478.002 512.7L476.602 510.6C473.802 508.733 468.902 506.167 461.902 502.9C454.902 499.633 443.235 498 426.902 498C398.902 498 376.968 506.633 361.102 523.9C345.702 541.167 338.002 565.2 338.002 596C338.002 609.067 339.635 621.9 342.902 634.5C346.168 647.1 351.068 659.467 357.602 671.6C352.935 674.4 347.802 676.5 342.202 677.9C337.068 679.3 331.702 680 326.102 680Z" fill="black"/>
<path d="M578.23 436H419.771C404.808 436 391.525 426.433 386.793 412.253L354.864 316.548C350.329 302.954 364.508 290.668 377.335 297.076L389.687 303.246C403.07 309.932 419.233 307.311 429.813 296.741L474.42 252.172C487.995 238.609 510.005 238.609 523.58 252.172L568.187 296.741C578.767 307.311 594.931 309.932 608.312 303.246L620.665 297.076C633.493 290.668 647.671 302.954 643.136 316.548L611.206 412.253C606.475 426.433 593.191 436 578.23 436Z" fill="black"/>
<path d="M524.5 351L498.5 314.5V351V389.5L524.5 351Z" fill="white"/>
<path d="M473 350.5L499 314V350.5V389L473 350.5Z" fill="white"/>
</svg>
